<svg xmlns="http://www.w3.org/2000/svg" xmlns:xlink="http://www.w3.org/1999/xlink" viewBox="0 0 44 44"><defs><style>.cls-1{fill:#0d1f06;stroke:#fff;stroke-miterlimit:10;}.cls-2{fill:none;}.cls-3{fill:url(#linear-gradient);}.cls-4{fill:url(#linear-gradient-2);}.cls-5{fill:url(#linear-gradient-3);}.cls-6{fill:url(#linear-gradient-4);}.cls-7{fill:url(#linear-gradient-5);}.cls-8{fill:url(#linear-gradient-6);}.cls-9{fill:url(#linear-gradient-7);}</style><linearGradient id="linear-gradient" x1="-395.61" y1="315.21" x2="-395.45" y2="315.21" gradientTransform="matrix(208.3, 0, 0, -91.64, 82408.65, 28896.64)" gradientUnits="userSpaceOnUse"><stop offset="0" stop-color="#5e0000"/><stop offset="1" stop-color="#5e0000"/></linearGradient><linearGradient id="linear-gradient-2" x1="-381.01" y1="305.86" x2="-380.85" y2="305.86" gradientTransform="matrix(26, 0, 0, -26, 9923.43, 7973.58)" gradientUnits="userSpaceOnUse"><stop offset="0" stop-color="#bbff9c"/><stop offset="1" stop-color="#bbff9c"/></linearGradient><linearGradient id="linear-gradient-3" x1="-381.64" y1="307.8" x2="-381.47" y2="307.8" gradientTransform="matrix(26, 0, 0, -26, 9939.73, 8030.68)" xlink:href="#linear-gradient-2"/><linearGradient id="linear-gradient-4" x1="-383.51" y1="307.89" x2="-383.34" y2="307.89" gradientTransform="matrix(26, 0, 0, -26, 9995.03, 8026.38)" xlink:href="#linear-gradient-2"/><linearGradient id="linear-gradient-5" x1="-384.48" y1="309.83" x2="-384.32" y2="309.83" gradientTransform="matrix(25.68, 0, 0, -26, 9895.06, 8083.48)" xlink:href="#linear-gradient-2"/><linearGradient id="linear-gradient-6" x1="-394.39" y1="317.19" x2="-394.23" y2="317.19" gradientTransform="matrix(87.6, 0, 0, -84.59, 34573.53, 26863.5)" xlink:href="#linear-gradient-2"/><linearGradient id="linear-gradient-7" x1="-393.5" y1="316.68" x2="-393.33" y2="316.68" gradientTransform="matrix(80.12, 5.6, 3.06, -43.7, 30568.05, 16076.43)" gradientUnits="userSpaceOnUse"><stop offset="0" stop-color="#74d14c"/><stop offset="1" stop-color="#74d14c"/></linearGradient></defs><g id="Layer_2" data-name="Layer 2"><g id="Layer_1-2" data-name="Layer 1"><circle class="cls-1" cx="22" cy="22" r="21.5"/><rect class="cls-2" x="0.99" y="1.35" width="40.22" height="20.39"/><path class="cls-3" d="M8.87,7.23h4.52V9.55l.72-.5,5.78-4.46a2.19,2.19,0,0,1,2.87.11C25.51,6.79,28.27,8.94,31,11c2.26,1.7,4.46,3.47,6.72,5.18a1.61,1.61,0,0,1,.83,1.7,2.07,2.07,0,0,1-3.36.94c-1.93-1.43-3.8-2.92-5.73-4.41-2.54-1.93-5-3.86-7.49-5.78a1,1,0,0,0-1.44,0C16.2,12.08,11.79,15.44,7.33,18.8a3.54,3.54,0,0,1-1,.56A2,2,0,0,1,4,18.58a1.58,1.58,0,0,1,.44-2.2c1.27-1,2.59-2,3.86-3a1.42,1.42,0,0,0,.5-1C8.93,10.71,8.87,9,8.87,7.23Z"/><rect class="cls-2" x="12.92" y="15.29" width="9.37" height="9.37"/><path class="cls-4" d="M16.83,18H20V22.4H15.68V19.2A1.21,1.21,0,0,1,16.83,18Z"/><rect class="cls-2" x="12.92" y="21.74" width="9.37" height="9.37"/><path class="cls-5" d="M15.68,24.49H20v4.36h-3.2a1.13,1.13,0,0,1-1.15-1.16v-3.2Z"/><rect class="cls-2" x="19.69" y="15.29" width="9.37" height="9.37"/><path class="cls-6" d="M26.8,19.2v3.2H22.45V18h3.2A1.21,1.21,0,0,1,26.8,19.2Z"/><rect class="cls-2" x="19.69" y="21.74" width="9.37" height="9.37"/><path class="cls-7" d="M26.75,24.49v1.05a10.77,10.77,0,0,0-2.54,3.09c-.05.05-.05.11-.11.22H22.45V24.49Z"/><rect class="cls-2" x="20.28" y="21.02" width="19.84" height="19.28"/><path class="cls-8" d="M37.69,23.78s-1.65.27-1.76.33c-.88.16-1.76.27-2.65.44a14.94,14.94,0,0,0-5.12,1.7l-.5.34a10,10,0,0,0-2.42,2.81c-.06.05-.06.11-.11.22a15.13,15.13,0,0,0-1.71,4.57,12.11,12.11,0,0,0-.22,1.32c0,.17-.11,1.27-.16,1.93.05-.06.22-.17.49-.39l1.32-1c.56-.44,1.16-1,1.88-1.55.33-.27.66-.6,1-.93.17-.11.28-.28.45-.39h0a5,5,0,0,0,.6-.55l1-1,1-1c.34-.33.61-.66.89-.94l.11-.11H32a.83.83,0,0,0-.16.22c-.28.33-.55.61-.83,1s-.61.66-.94,1-.66.67-1,1.05a9.64,9.64,0,0,1-.82.77h0c-.06.06-.17.11-.23.22-.33.33-.66.66-1,.94-.66.61-1.26,1.16-1.82,1.65s-1,.88-1.32,1.16-.44.33-.49.39C38.52,37.16,37.69,23.78,37.69,23.78Z"/><rect class="cls-2" x="8.93" y="25.2" width="12.67" height="18.73" transform="translate(-20.28 47.38) rotate(-86)"/><path class="cls-9" d="M20.17,34.64A9.17,9.17,0,0,0,19,33.28C14.55,29,8.84,31.63,8.84,31.63s.59,1,.64,1.1c1,1.73,2,3.62,3.76,4.73a6.46,6.46,0,0,0,2.48.84,10.57,10.57,0,0,0,4.54-.23,16.5,16.5,0,0,0,1.64-.5A16.3,16.3,0,0,0,20.17,34.64Z"/></g></g></svg>