<svg version="1.1" id="Layer_1" xmlns="http://www.w3.org/2000/svg" xmlns:xlink="http://www.w3.org/1999/xlink" x="0px" y="0px"
	 viewBox="0 0 512 512" style="enable-background:new 0 0 512 512;" xml:space="preserve">
<path d="M512,144v288c0,26.5-21.5,48-48,48H48c-26.5,0-48-21.5-48-48V144c0-26.5,21.5-48,48-48h88l12.3-32.9
	c7-18.7,24.9-31.1,44.9-31.1h125.5c20,0,37.9,12.4,44.9,31.1L376,96h88C490.5,96,512,117.5,512,144z M376,288
	c0-66.2-53.8-120-120-120s-120,53.8-120,120s53.8,120,120,120S376,354.2,376,288z M393,286.5C393,365,331.7,429,256.5,429
	S120,365,120,286.5S181.3,144,256.5,144S393,208,393,286.5z"/>
</svg>
