<?xml version="1.0" encoding="utf-8"?>
<!-- Generator: Adobe Illustrator 23.0.1, SVG Export Plug-In . SVG Version: 6.00 Build 0)  -->
<svg version="1.1" id="Layer_1" xmlns="http://www.w3.org/2000/svg" xmlns:xlink="http://www.w3.org/1999/xlink" x="0px" y="0px"
	 viewBox="0 0 512 512" style="enable-background:new 0 0 512 512;" xml:space="preserve">
<style type="text/css">
	.st0{fill:#004200;}
	.st1{fill:#7C0000;}
	.st2{font-family:'AvenirNextCondensed-DemiBold';}
	.st3{font-size:60px;}
</style>
<path class="st0" d="M330.5,234.1h-67.8v-3.8h54.9v-2.8h-54.9V195l48.9,25.9l1.3-2.5l-50.3-26.7v-4.5l48.6,25.7l1.3-2.5l-49.9-26.4
	v-16.9h-2.8v15.4l-9-4.8v-31.1H248v29.6l-22.4-11.9L182.5,188v11l9.5-5.2v43.1h67.8v14h2.8v-14h67.8V234.1L330.5,234.1z
	 M259.8,227.4h-9v-38.7l9,4.8V227.4z M259.8,185.8v4.5l-9.2-4.8v-4.5L259.8,185.8z M247.8,179.4v4.3l-22.4-11.7v-4.5
	C225.4,167.6,247.8,179.4,247.8,179.4z M201.7,188.5l23.7-13l22.4,11.7v40.1h-15.2v-16.7h-12.9v16.9h-18
	C201.7,227.4,201.7,188.5,201.7,188.5z M247.8,230.2v3.8h-15.2v-3.8H247.8z M250.7,234.1v-3.8h9.2v3.8H250.7z"/>
<path class="st0" d="M50.6,256.6h410.9v2.8H50.6V256.6z"/>
<path class="st0" d="M50.6,362.1h410.9v2.8H50.6V362.1z"/>
<g>
	
		<image style="overflow:visible;opacity:0.75;" width="440" height="119" xlink:href="3063C49948FA400.png"  transform="matrix(1 0 0 1 46 264)">
	</image>
	<g>
		<text transform="matrix(1 0 0 1 54 333)" class="st1 st2 st3">NHÀ ĐẤT BẢO LỘC</text>
	</g>
</g>
</svg>
