<svg xmlns="http://www.w3.org/2000/svg" xmlns:xlink="http://www.w3.org/1999/xlink" viewBox="0 0 44 44"><defs><linearGradient id="linear-gradient" x1="-380.98" y1="305.86" x2="-380.81" y2="305.86" gradientTransform="matrix(26, 0, 0, -26, 9923.43, 7973.58)" gradientUnits="userSpaceOnUse"><stop offset="0" stop-color="#bbff9c"/><stop offset="1" stop-color="#bbff9c"/></linearGradient><linearGradient id="linear-gradient-2" x1="-381.6" y1="307.8" x2="-381.44" y2="307.8" gradientTransform="matrix(26, 0, 0, -26, 9939.73, 8030.68)" xlink:href="#linear-gradient"/><linearGradient id="linear-gradient-3" x1="-383.47" y1="307.89" x2="-383.3" y2="307.89" gradientTransform="matrix(26, 0, 0, -26, 9995.03, 8026.38)" xlink:href="#linear-gradient"/><linearGradient id="linear-gradient-4" x1="-384.44" y1="309.83" x2="-384.28" y2="309.83" gradientTransform="matrix(25.68, 0, 0, -26, 9895.06, 8083.48)" xlink:href="#linear-gradient"/><linearGradient id="linear-gradient-5" x1="-394.38" y1="317.19" x2="-394.21" y2="317.19" gradientTransform="matrix(87.6, 0, 0, -84.59, 34573.53, 26863.5)" xlink:href="#linear-gradient"/><linearGradient id="linear-gradient-6" x1="-393.49" y1="316.68" x2="-393.32" y2="316.68" gradientTransform="matrix(80.12, 5.6, 3.06, -43.7, 30568.05, 16076.43)" gradientUnits="userSpaceOnUse"><stop offset="0" stop-color="#74d14c"/><stop offset="1" stop-color="#74d14c"/></linearGradient></defs><g id="Layer_2" data-name="Layer 2"><g id="Layer_1-2" data-name="Layer 1"><circle cx="22" cy="22" r="21.5" style="fill:#0d1f06;stroke:#fff;stroke-miterlimit:10"/><path d="M9.87,7.23h4.52V9.55l.72-.5,5.78-4.46a2.19,2.19,0,0,1,2.87.11C26.51,6.79,29.27,8.94,32,11c2.26,1.7,4.46,3.47,6.72,5.18a1.61,1.61,0,0,1,.83,1.7,2.07,2.07,0,0,1-3.36.94c-1.93-1.43-3.8-2.92-5.73-4.41-2.54-1.93-5-3.86-7.49-5.78a1,1,0,0,0-1.44,0C17.2,12.08,12.79,15.44,8.33,18.8a3.54,3.54,0,0,1-1,.56A2,2,0,0,1,5,18.58a1.58,1.58,0,0,1,.44-2.2c1.27-1,2.59-2,3.86-3a1.42,1.42,0,0,0,.5-1C9.93,10.71,9.87,9,9.87,7.23Z" style="fill:#af103a"/><path d="M17.83,18H21V22.4H16.68V19.2A1.21,1.21,0,0,1,17.83,18Z" style="fill:url(#linear-gradient)"/><path d="M16.68,24.49H21v4.36h-3.2a1.13,1.13,0,0,1-1.15-1.16v-3.2Z" style="fill:url(#linear-gradient-2)"/><path d="M27.8,19.2v3.2H23.45V18h3.2A1.21,1.21,0,0,1,27.8,19.2Z" style="fill:url(#linear-gradient-3)"/><path d="M27.75,24.49v1.05a10.77,10.77,0,0,0-2.54,3.09c-.05.05-.05.11-.11.22H23.45V24.49Z" style="fill:url(#linear-gradient-4)"/><path d="M38.69,23.78s-1.65.27-1.76.33c-.88.16-1.76.27-2.65.44a14.94,14.94,0,0,0-5.12,1.7l-.5.34a10,10,0,0,0-2.42,2.81c-.06.05-.06.11-.11.22a15.13,15.13,0,0,0-1.71,4.57,12.11,12.11,0,0,0-.22,1.32c0,.17-.11,1.27-.16,1.93.05-.06.22-.17.49-.39l1.32-1c.56-.44,1.16-1,1.88-1.55.33-.27.66-.6,1-.93.17-.11.28-.28.45-.39h0a5,5,0,0,0,.6-.55l1-1,1-1c.34-.33.61-.66.89-.94l.11-.11H33a.83.83,0,0,0-.16.22c-.28.33-.55.61-.83,1s-.61.66-.94,1-.66.67-1,1.05a9.64,9.64,0,0,1-.82.77h0c-.06.06-.17.11-.23.22-.33.33-.66.66-1,.94-.66.61-1.26,1.16-1.82,1.65s-1,.88-1.32,1.16-.44.33-.49.39C39.52,37.16,38.69,23.78,38.69,23.78Z" style="fill:url(#linear-gradient-5)"/><path d="M21.17,34.64A9.17,9.17,0,0,0,20,33.28C15.55,29,9.84,31.63,9.84,31.63s.59,1,.64,1.1c1,1.73,2,3.62,3.76,4.73a6.46,6.46,0,0,0,2.48.84,10.57,10.57,0,0,0,4.54-.23,16.5,16.5,0,0,0,1.64-.5A16.3,16.3,0,0,0,21.17,34.64Z" style="fill:url(#linear-gradient-6)"/></g></g></svg>